<svg width="36" height="37" viewBox="0 0 36 37" fill="none" xmlns="http://www.w3.org/2000/svg">
<path d="M17.9996 0.5C16.596 0.5 15.2299 0.660642 13.9193 0.965194C7.25466 2.50937 2.009 7.75502 0.464828 14.419C0.160276 15.7303 -0.000366211 17.0964 -0.000366211 18.5C-0.000366211 28.4411 8.05854 36.5 17.9996 36.5C19.4032 36.5 20.7694 36.3394 22.0806 36.0348C28.7446 34.4906 33.9903 29.2456 35.5351 22.5823C35.8397 21.2711 36.0003 19.9043 36.0003 18.5C36.0003 8.5589 27.9407 0.5 17.9996 0.5ZM17.9996 29.7724C16.671 29.7724 15.3966 29.5428 14.2132 29.1205C11.0338 27.9866 8.51369 25.4665 7.37982 22.2871C6.95747 21.1037 6.72788 19.8286 6.72788 18.5C6.72788 12.2744 11.7741 7.22758 17.9996 7.22758C19.3283 7.22758 20.6027 7.45716 21.7861 7.87952C24.9655 9.01339 27.4862 11.5335 28.6201 14.7129C29.0425 15.8963 29.2721 17.1714 29.2721 18.5C29.2721 24.7256 24.2252 29.7724 17.9996 29.7724Z" fill="url(#paint0_linear_84_244)"/>
<path d="M17.9996 11.2349C13.9876 11.2349 10.7346 14.4879 10.7346 18.4999C10.7346 22.512 13.9876 25.765 17.9996 25.765C22.0117 25.765 25.2647 22.512 25.2647 18.4999C25.2647 14.4879 22.0123 11.2349 17.9996 11.2349ZM17.9996 22.8928C15.5739 22.8928 13.6067 20.9263 13.6067 18.4999C13.6067 16.0736 15.5739 14.107 17.9996 14.107C20.4253 14.107 22.3925 16.0736 22.3925 18.4999C22.3925 20.9263 20.426 22.8928 17.9996 22.8928Z" fill="#FEFCFE"/>
<path d="M21.7861 7.87966C20.6027 7.4573 19.3283 7.22772 17.9996 7.22772C11.7741 7.22772 6.72787 12.2746 6.72787 18.5001C6.72787 19.8288 6.95745 21.1039 7.37981 22.2873C5.94139 21.7438 4.59266 20.893 3.43469 19.7351C1.91528 18.2157 0.925322 16.3676 0.464813 14.4191C2.00899 7.75516 7.25464 2.50951 13.9193 0.965332C15.8671 1.42584 17.7151 2.4158 19.2346 3.93521C20.3919 5.09251 21.2426 6.44124 21.7861 7.87966Z" fill="url(#paint1_linear_84_244)"/>
<path d="M35.5351 22.5824C33.9902 29.2457 28.7446 34.4907 22.0806 36.0348C20.1328 35.5743 18.2848 34.5844 16.7653 33.065C15.6074 31.907 14.7566 30.5583 14.2131 29.1205C15.3965 29.5429 16.671 29.7725 17.9996 29.7725C24.2252 29.7725 29.272 24.7256 29.272 18.5C29.272 17.1714 29.0425 15.8963 28.6201 14.7129C30.0578 15.2564 31.4066 16.1071 32.5645 17.2651C34.084 18.7845 35.0746 20.6339 35.5351 22.5824Z" fill="url(#paint2_linear_84_244)"/>
<path d="M9.09602 31.1713C11.1765 31.1713 12.8631 29.4848 12.8631 27.4043C12.8631 25.3238 11.1765 23.6372 9.09602 23.6372C7.01552 23.6372 5.32895 25.3238 5.32895 27.4043C5.32895 29.4848 7.01552 31.1713 9.09602 31.1713Z" fill="url(#paint3_linear_84_244)"/>
<path d="M26.9367 13.3305C29.0172 13.3305 30.7038 11.6439 30.7038 9.56346C30.7038 7.48296 29.0172 5.79639 26.9367 5.79639C24.8562 5.79639 23.1696 7.48296 23.1696 9.56346C23.1696 11.6439 24.8562 13.3305 26.9367 13.3305Z" fill="url(#paint4_linear_84_244)"/>
<defs>
<linearGradient id="paint0_linear_84_244" x1="30.5552" y1="6.63588" x2="5.83498" y2="29.9953" gradientUnits="userSpaceOnUse">
<stop stop-color="#F38856"/>
<stop offset="0.23" stop-color="#F0625C"/>
<stop offset="1" stop-color="#5C3DAB"/>
</linearGradient>
<linearGradient id="paint1_linear_84_244" x1="16.8604" y1="3.55168" x2="2.79949" y2="17.537" gradientUnits="userSpaceOnUse">
<stop stop-color="#F67986"/>
<stop offset="1" stop-color="#8951BA"/>
</linearGradient>
<linearGradient id="paint2_linear_84_244" x1="32.942" y1="19.7196" x2="18.8811" y2="33.7055" gradientUnits="userSpaceOnUse">
<stop stop-color="#F67986"/>
<stop offset="1" stop-color="#8951BA"/>
</linearGradient>
<linearGradient id="paint3_linear_84_244" x1="11.8464" y1="24.8306" x2="6.34501" y2="29.9779" gradientUnits="userSpaceOnUse">
<stop stop-color="#A267B9"/>
<stop offset="1" stop-color="#704BB4"/>
</linearGradient>
<linearGradient id="paint4_linear_84_244" x1="29.2265" y1="7.42022" x2="25.4709" y2="10.9349" gradientUnits="userSpaceOnUse">
<stop stop-color="#F7A8A5"/>
<stop offset="0.97" stop-color="#D074C4"/>
<stop offset="1" stop-color="#CF76A9"/>
</linearGradient>
</defs>
</svg>
